<?xml version="1.0" encoding="UTF-8"?>
<svg width="201px" height="23px" viewBox="0 0 201 23" version="1.1" xmlns="http://www.w3.org/2000/svg" xmlns:xlink="http://www.w3.org/1999/xlink">
    <!-- Generator: Sketch 52.6 (67491) - http://www.bohemiancoding.com/sketch -->
    <title>AGRIVOLTAICS</title>
    <desc>Created with Sketch.</desc>
    <g id="Page-1" stroke="none" stroke-width="1" fill="none" fill-rule="evenodd">
        <path d="M13.0078125,17.8544922 L6.28417969,17.8544922 L5.08300781,22 L0.102539062,22 L6.98730469,0.671875 L12.3046875,0.671875 L19.2041016,22 L14.2236328,22 L13.0078125,17.8544922 Z M7.3828125,14.0458984 L11.9091797,14.0458984 L9.68261719,6.4140625 L9.59472656,6.4140625 L7.3828125,14.0458984 Z M37.3974609,19.0556641 C36.6748011,19.9150434 35.6250069,20.6718717 34.2480469,21.3261719 C32.8710869,21.980472 31.1425885,22.3076172 29.0625,22.3076172 C26.4257681,22.3076172 24.2846762,21.4970784 22.6391602,19.8759766 C20.9936441,18.2548747 20.1708984,16.1504036 20.1708984,13.5625 L20.1708984,9.109375 C20.1708984,6.54100278 20.9741131,4.4414144 22.5805664,2.81054688 C24.1870198,1.17967935 26.2548702,0.364257812 28.7841797,0.364257812 C31.528334,0.364257812 33.5839775,0.99901709 34.9511719,2.26855469 C36.3183662,3.53809229 37.0947256,5.27147339 37.2802734,7.46875 L37.2509766,7.55664062 L32.6074219,7.55664062 C32.4414054,6.43358813 32.0776395,5.58887002 31.5161133,5.02246094 C30.954587,4.45605186 30.097662,4.17285156 28.9453125,4.17285156 C27.792963,4.17285156 26.8652379,4.62938997 26.1621094,5.54248047 C25.4589809,6.45557097 25.1074219,7.6347584 25.1074219,9.08007812 L25.1074219,13.5625 C25.1074219,15.0468824 25.4540981,16.2407181 26.1474609,17.144043 C26.8408238,18.0473678 27.8124937,18.4990234 29.0625,18.4990234 C29.9707077,18.4990234 30.6835912,18.425782 31.2011719,18.2792969 C31.7187526,18.1328118 32.1289047,17.9375012 32.4316406,17.6933594 L32.4316406,14.3242188 L29.0771484,14.3242188 L29.0771484,11.0429688 L37.3974609,11.0429688 L37.3974609,19.0556641 Z M45.3808594,13.8261719 L45.3808594,22 L40.4150391,22 L40.4150391,0.671875 L48.6181641,0.671875 C51.0888795,0.671875 53.0468678,1.24315835 54.4921875,2.38574219 C55.9375072,3.52832603 56.6601562,5.0908104 56.6601562,7.07324219 C56.6601562,8.17676333 56.3696318,9.12401948 55.7885742,9.91503906 C55.2075166,10.7060586 54.3505916,11.3505834 53.2177734,11.8486328 C54.5263737,12.2197284 55.4663057,12.837398 56.0375977,13.7016602 C56.6088896,14.5659223 56.8945312,15.6425717 56.8945312,16.9316406 L56.8945312,18.2792969 C56.8945312,18.8359403 56.9775382,19.4706996 57.1435547,20.1835938 C57.3095711,20.8964879 57.5976542,21.4042954 58.0078125,21.7070312 L58.0078125,22 L52.9101562,22 C52.5195293,21.6972641 52.2631842,21.1601601 52.1411133,20.3886719 C52.0190424,19.6171836 51.9580078,18.9043001 51.9580078,18.25 L51.9580078,16.9609375 C51.9580078,15.9453074 51.6894558,15.168948 51.1523438,14.6318359 C50.6152317,14.0947239 49.8291067,13.8261719 48.7939453,13.8261719 L45.3808594,13.8261719 Z M45.3808594,10.0175781 L48.6474609,10.0175781 C49.6435597,10.0175781 50.4052708,9.79052961 50.9326172,9.33642578 C51.4599636,8.88232195 51.7236328,8.230473 51.7236328,7.38085938 C51.7236328,6.5117144 51.4526394,5.81103782 50.9106445,5.27880859 C50.3686496,4.74657937 49.6044971,4.48046875 48.6181641,4.48046875 L45.3808594,4.48046875 L45.3808594,10.0175781 Z M65.4931641,22 L60.5566406,22 L60.5566406,0.671875 L65.4931641,0.671875 L65.4931641,22 Z M76.8310547,16.2138672 L76.9775391,16.9902344 L77.0654297,16.9902344 L77.2119141,16.2724609 L81.4453125,0.671875 L86.6308594,0.671875 L79.7167969,22 L74.3701172,22 L67.4853516,0.671875 L72.65625,0.671875 L76.8310547,16.2138672 Z M105.732422,13.2548828 C105.732422,15.8818491 104.899911,18.0473548 103.234863,19.7514648 C101.569816,21.4555749 99.3945447,22.3076172 96.7089844,22.3076172 C94.0038927,22.3076172 91.8115318,21.4555749 90.1318359,19.7514648 C88.45214,18.0473548 87.6123047,15.8818491 87.6123047,13.2548828 L87.6123047,9.41699219 C87.6123047,6.7997916 88.4496987,4.63672729 90.1245117,2.92773438 C91.7993248,1.21874146 93.9843615,0.364257812 96.6796875,0.364257812 C99.3554821,0.364257812 101.533195,1.21874146 103.212891,2.92773438 C104.892587,4.63672729 105.732422,6.7997916 105.732422,9.41699219 L105.732422,13.2548828 Z M100.795898,9.38769531 C100.795898,7.8642502 100.437015,6.6142627 99.7192383,5.63769531 C99.0014613,4.66112793 97.9882878,4.17285156 96.6796875,4.17285156 C95.3417902,4.17285156 94.3188512,4.65868655 93.6108398,5.63037109 C92.9028285,6.60205564 92.5488281,7.85448452 92.5488281,9.38769531 L92.5488281,13.2548828 C92.5488281,14.7978593 92.9077113,16.0576123 93.6254883,17.0341797 C94.3432653,18.0107471 95.3710871,18.4990234 96.7089844,18.4990234 C98.007819,18.4990234 99.0136683,18.0107471 99.7265625,17.0341797 C100.439457,16.0576123 100.795898,14.7978593 100.795898,13.2548828 L100.795898,9.38769531 Z M113.569336,18.1914062 L122.753906,18.1914062 L122.753906,22 L108.603516,22 L108.603516,0.671875 L113.569336,0.671875 L113.569336,18.1914062 Z M136.728516,4.48046875 L131.103516,4.48046875 L131.103516,22 L126.137695,22 L126.137695,4.48046875 L120.556641,4.48046875 L120.556641,0.671875 L136.728516,0.671875 L136.728516,4.48046875 Z M148.476562,17.8544922 L141.75293,17.8544922 L140.551758,22 L135.571289,22 L142.456055,0.671875 L147.773438,0.671875 L154.672852,22 L149.692383,22 L148.476562,17.8544922 Z M142.851562,14.0458984 L147.37793,14.0458984 L145.151367,6.4140625 L145.063477,6.4140625 L142.851562,14.0458984 Z M161.455078,22 L156.518555,22 L156.518555,0.671875 L161.455078,0.671875 L161.455078,22 Z M181.743164,14.5146484 L181.772461,14.6025391 C181.674804,17.1025516 180.935066,19.0117122 179.553223,20.3300781 C178.17138,21.6484441 176.167005,22.3076172 173.540039,22.3076172 C170.903307,22.3076172 168.759774,21.4970784 167.109375,19.8759766 C165.458976,18.2548747 164.633789,16.1504036 164.633789,13.5625 L164.633789,9.109375 C164.633789,6.53123711 165.427238,4.42920735 167.01416,2.80322266 C168.601082,1.17723796 170.66405,0.364257812 173.203125,0.364257812 C175.898451,0.364257812 177.958977,1.04296196 179.384766,2.40039062 C180.810554,3.75781929 181.61621,5.68651094 181.801758,8.18652344 L181.772461,8.27441406 L176.953125,8.27441406 C176.884765,6.88768838 176.57471,5.85742524 176.022949,5.18359375 C175.471189,4.50976226 174.531257,4.17285156 173.203125,4.17285156 C172.080073,4.17285156 171.196292,4.6245072 170.551758,5.52783203 C169.907223,6.43115686 169.584961,7.61522705 169.584961,9.08007812 L169.584961,13.5625 C169.584961,15.0371167 169.93652,16.2285111 170.639648,17.1367188 C171.342777,18.0449264 172.309564,18.4990234 173.540039,18.4990234 C174.731451,18.4990234 175.576169,18.1816438 176.074219,17.546875 C176.572268,16.9121062 176.855468,15.9013741 176.923828,14.5146484 L181.743164,14.5146484 Z M195.732422,16.3457031 C195.732422,15.5937462 195.483401,15.0126974 194.985352,14.6025391 C194.487302,14.1923808 193.593756,13.7578148 192.304688,13.2988281 C189.609362,12.4492145 187.612311,11.5385791 186.313477,10.5668945 C185.014642,9.59520999 184.365234,8.19141543 184.365234,6.35546875 C184.365234,4.56835044 185.139152,3.12305239 186.687012,2.01953125 C188.234871,0.916010107 190.200183,0.364257812 192.583008,0.364257812 C194.946301,0.364257812 196.882317,0.97216189 198.391113,2.18798828 C199.89991,3.40381467 200.629883,4.96874043 200.581055,6.8828125 L200.551758,6.97070312 L195.74707,6.97070312 C195.74707,6.1210895 195.458987,5.43017844 194.882812,4.89794922 C194.306638,4.36572 193.510747,4.09960938 192.495117,4.09960938 C191.499018,4.09960938 190.717776,4.31933374 190.151367,4.75878906 C189.584958,5.19824438 189.301758,5.74023115 189.301758,6.38476562 C189.301758,7.00976875 189.587399,7.51025203 190.158691,7.88623047 C190.729983,8.26220891 191.80175,8.73339561 193.374023,9.29980469 C195.795911,10.0224646 197.619623,10.9111275 198.845215,11.9658203 C200.070807,13.0205131 200.683594,14.4706939 200.683594,16.3164062 C200.683594,18.1914156 199.953621,19.6586861 198.493652,20.7182617 C197.033684,21.7778373 195.097668,22.3076172 192.685547,22.3076172 C190.26366,22.3076172 188.168954,21.6997131 186.401367,20.4838867 C184.63378,19.2680603 183.774414,17.5175896 183.823242,15.2324219 L183.852539,15.1445312 L188.671875,15.1445312 C188.671875,16.3750062 189.003903,17.2539036 189.667969,17.78125 C190.332035,18.3085964 191.337884,18.5722656 192.685547,18.5722656 C193.710943,18.5722656 194.475095,18.3671896 194.978027,17.9570312 C195.48096,17.5468729 195.732422,17.0097689 195.732422,16.3457031 Z" id="AGRIVOLTAICS" fill="#FF0000"></path>
    </g>
</svg>